<?xml version="1.0" encoding="utf-8"?>
<!-- Generator: Adobe Illustrator 16.2.0, SVG Export Plug-In . SVG Version: 6.00 Build 0)  -->
<!DOCTYPE svg PUBLIC "-//W3C//DTD SVG 1.1//EN" "http://www.w3.org/Graphics/SVG/1.1/DTD/svg11.dtd">
<svg version="1.1"
	 id="svg2987" inkscape:version="0.48.0 r9654" sodipodi:docname="clock0.svg" xmlns:dc="http://purl.org/dc/elements/1.1/" xmlns:sodipodi="http://sodipodi.sourceforge.net/DTD/sodipodi-0.dtd" xmlns:svg="http://www.w3.org/2000/svg" xmlns:rdf="http://www.w3.org/1999/02/22-rdf-syntax-ns#" xmlns:cc="http://creativecommons.org/ns#" xmlns:inkscape="http://www.inkscape.org/namespaces/inkscape"
	 xmlns="http://www.w3.org/2000/svg" xmlns:xlink="http://www.w3.org/1999/xlink" x="0px" y="0px" width="16px" height="16px"
	 viewBox="0 0 16 16" enable-background="new 0 0 16 16" xml:space="preserve">
<sodipodi:namedview  id="base" inkscape:document-units="px" inkscape:grid-bbox="true" inkscape:window-maximized="1" inkscape:window-width="1920" inkscape:window-y="25" inkscape:window-height="1127" inkscape:pageshadow="2" inkscape:window-x="0" inkscape:current-layer="layer5" inkscape:pageopacity="0.0" inkscape:guide-bbox="true" inkscape:cy="10.828475" inkscape:zoom="1" showgrid="true" bordercolor="#666666" inkscape:cx="10.569917" pagecolor="#ffffff" borderopacity="1.0" showguides="true">
	</sodipodi:namedview>
<g>
	<g>
		<path fill-rule="evenodd" clip-rule="evenodd" fill="#101C3A" d="M-0.041,8.53c0-0.334,0-0.669,0-1.004
			c0.01-0.05,0.021-0.101,0.028-0.152c0.059-0.381,0.091-0.77,0.177-1.143C1.153,1.985,5.259-0.674,9.54,0.149
			c4.147,0.798,7.001,4.768,6.407,8.946c-0.343,2.415-1.547,4.313-3.581,5.659c-1.284,0.848-2.702,1.287-4.256,1.278
			c-0.762-0.004-1.517-0.035-2.247-0.263c-3.171-0.985-5.106-3.103-5.781-6.359C0.022,9.121,0,8.824-0.041,8.53z M14.514,8.028
			c-0.003-3.602-2.919-6.522-6.52-6.525C4.39,1.5,1.459,4.431,1.465,8.034c0.005,3.601,2.927,6.519,6.528,6.518
			C11.59,14.552,14.517,11.625,14.514,8.028z"/>
		<path fill-rule="evenodd" clip-rule="evenodd" fill="#101C3A" d="M7.488,3.182c0-0.272-0.001-0.544,0.001-0.815
			c0.002-0.172,0.063-0.233,0.238-0.235c0.184-0.002,0.367,0,0.549,0c0.141,0,0.215,0.072,0.216,0.211c0,0.57,0,1.14,0,1.709
			C8.491,4.192,8.415,4.263,8.275,4.264c-0.182,0.002-0.365,0.002-0.548,0C7.553,4.263,7.49,4.2,7.489,4.028
			C7.487,3.745,7.488,3.463,7.488,3.182z"/>
		<path fill-rule="evenodd" clip-rule="evenodd" fill="#101C3A" d="M2.907,8.28c-0.197,0-0.396,0.002-0.593-0.001
			C2.152,8.276,2.093,8.206,2.092,8.028c-0.001-0.18,0.058-0.25,0.221-0.25c0.396-0.003,0.792-0.004,1.187,0
			c0.163,0,0.223,0.072,0.223,0.25c0.002,0.176-0.061,0.248-0.221,0.251C3.304,8.282,3.106,8.28,2.907,8.28z"/>
		<path fill-rule="evenodd" clip-rule="evenodd" fill="#101C3A" d="M13.064,8.279c-0.193,0-0.388,0.003-0.58,0
			c-0.171-0.003-0.231-0.073-0.229-0.263c0.003-0.173,0.063-0.238,0.236-0.238c0.386-0.002,0.771-0.002,1.159,0
			c0.177,0,0.238,0.069,0.238,0.251c-0.002,0.182-0.063,0.247-0.244,0.249C13.451,8.282,13.258,8.28,13.064,8.279L13.064,8.279z"/>
		<path fill-rule="evenodd" clip-rule="evenodd" fill="#101C3A" d="M8.241,13.127c0,0.187,0.001,0.374-0.001,0.563
			c-0.002,0.175-0.071,0.237-0.255,0.235c-0.175,0-0.245-0.062-0.246-0.229c-0.003-0.392-0.003-0.784,0-1.177
			c0.001-0.165,0.069-0.226,0.247-0.226c0.186-0.001,0.252,0.059,0.254,0.235C8.242,12.729,8.241,12.928,8.241,13.127z"/>
		<path fill-rule="evenodd" clip-rule="evenodd" fill="#101C3A" d="M5.149,2.857c0.109,0.189,0.207,0.36,0.312,0.542
			c-0.074,0.044-0.14,0.082-0.214,0.126C5.142,3.343,5.042,3.174,4.935,2.987C5.004,2.945,5.069,2.906,5.149,2.857z"/>
		<path fill-rule="evenodd" clip-rule="evenodd" fill="#101C3A" d="M3.365,5.502C3.173,5.391,3.002,5.293,2.823,5.189
			c0.043-0.076,0.081-0.143,0.124-0.217c0.18,0.103,0.345,0.198,0.534,0.306C3.444,5.349,3.409,5.417,3.365,5.502z"/>
		<path fill-rule="evenodd" clip-rule="evenodd" fill="#101C3A" d="M12.491,10.771c0.048-0.083,0.083-0.144,0.125-0.215
			c0.18,0.102,0.351,0.2,0.539,0.307c-0.039,0.071-0.075,0.138-0.121,0.223C12.853,10.98,12.68,10.879,12.491,10.771z"/>
		<path fill-rule="evenodd" clip-rule="evenodd" fill="#101C3A" d="M10.733,12.529c0.105,0.184,0.204,0.355,0.313,0.539
			c-0.072,0.042-0.138,0.081-0.217,0.128c-0.104-0.184-0.206-0.357-0.312-0.541C10.592,12.611,10.658,12.573,10.733,12.529z"/>
		<path fill-rule="evenodd" clip-rule="evenodd" fill="#101C3A" d="M6.503,2.968c-0.056-0.21-0.105-0.399-0.16-0.604
			C6.427,2.342,6.5,2.326,6.585,2.305C6.639,2.507,6.69,2.696,6.747,2.902C6.667,2.924,6.595,2.943,6.503,2.968z"/>
		<path fill-rule="evenodd" clip-rule="evenodd" fill="#101C3A" d="M10.732,3.527c-0.079-0.047-0.141-0.084-0.215-0.128
			c0.104-0.182,0.204-0.355,0.31-0.54c0.077,0.045,0.143,0.082,0.219,0.125C10.939,3.168,10.841,3.338,10.732,3.527z"/>
		<path fill-rule="evenodd" clip-rule="evenodd" fill="#101C3A" d="M13.031,4.971c0.043,0.077,0.081,0.143,0.124,0.217
			c-0.182,0.106-0.352,0.206-0.538,0.314c-0.042-0.073-0.079-0.137-0.125-0.218C12.673,5.178,12.847,5.078,13.031,4.971z"/>
		<path fill-rule="evenodd" clip-rule="evenodd" fill="#101C3A" d="M2.946,11.084c-0.043-0.075-0.081-0.142-0.125-0.219
			c0.183-0.104,0.356-0.205,0.54-0.31c0.043,0.074,0.08,0.138,0.125,0.214C3.305,10.875,3.132,10.976,2.946,11.084z"/>
		<path fill-rule="evenodd" clip-rule="evenodd" fill="#101C3A" d="M5.149,13.195c-0.078-0.044-0.141-0.08-0.217-0.122
			c0.107-0.185,0.207-0.358,0.313-0.544c0.075,0.045,0.141,0.082,0.215,0.126C5.358,12.836,5.258,13.007,5.149,13.195z"/>
		<path fill-rule="evenodd" clip-rule="evenodd" fill="#101C3A" d="M9.474,2.969C9.383,2.943,9.314,2.924,9.234,2.902
			c0.053-0.2,0.104-0.388,0.157-0.596c0.081,0.018,0.154,0.035,0.243,0.057C9.58,2.567,9.529,2.759,9.474,2.969z"/>
		<path fill-rule="evenodd" clip-rule="evenodd" fill="#101C3A" d="M2.928,6.54C2.905,6.626,2.889,6.695,2.866,6.783
			c-0.2-0.052-0.391-0.104-0.599-0.159c0.02-0.084,0.037-0.157,0.059-0.241C2.529,6.436,2.716,6.485,2.928,6.54z"/>
		<path fill-rule="evenodd" clip-rule="evenodd" fill="#101C3A" d="M13.114,6.785c-0.021-0.087-0.042-0.159-0.063-0.243
			c0.203-0.055,0.391-0.104,0.6-0.16c0.021,0.082,0.042,0.152,0.064,0.24C13.51,6.677,13.317,6.729,13.114,6.785z"/>
		<path fill-rule="evenodd" clip-rule="evenodd" fill="#101C3A" d="M2.93,9.513c-0.212,0.057-0.4,0.106-0.604,0.16
			c-0.022-0.084-0.04-0.157-0.059-0.241C2.47,9.377,2.658,9.327,2.864,9.27C2.886,9.352,2.905,9.423,2.93,9.513z"/>
		<path fill-rule="evenodd" clip-rule="evenodd" fill="#101C3A" d="M13.713,9.432c-0.02,0.083-0.039,0.155-0.061,0.241
			C13.45,9.62,13.262,9.57,13.051,9.515c0.02-0.078,0.037-0.15,0.061-0.243C13.312,9.326,13.505,9.376,13.713,9.432z"/>
		<path fill-rule="evenodd" clip-rule="evenodd" fill="#101C3A" d="M6.585,13.754c-0.091-0.025-0.16-0.042-0.241-0.063
			c0.053-0.201,0.102-0.391,0.159-0.601c0.078,0.021,0.15,0.037,0.242,0.06C6.692,13.351,6.641,13.542,6.585,13.754z"/>
		<path fill-rule="evenodd" clip-rule="evenodd" fill="#101C3A" d="M9.23,13.153c0.088-0.024,0.156-0.043,0.241-0.064
			c0.057,0.199,0.107,0.391,0.165,0.602c-0.084,0.021-0.156,0.04-0.241,0.062C9.34,13.551,9.289,13.362,9.23,13.153z"/>
		<path fill-rule="evenodd" clip-rule="evenodd" fill="#101C3A" d="M3.753,3.921c0.04-0.037,0.092-0.086,0.141-0.13
			c0.141,0.147,0.279,0.292,0.418,0.438c-0.034,0.025-0.094,0.07-0.155,0.115C4.047,4.228,3.91,4.085,3.753,3.921z"/>
		<path fill-rule="evenodd" clip-rule="evenodd" fill="#101C3A" d="M11.777,4.368c-0.035-0.038-0.083-0.09-0.13-0.139
			c0.146-0.142,0.293-0.283,0.45-0.437c0.034,0.041,0.08,0.093,0.118,0.136C12.072,4.071,11.93,4.216,11.777,4.368z"/>
		<path fill-rule="evenodd" clip-rule="evenodd" fill="#101C3A" d="M4.197,11.687c0.042,0.044,0.091,0.097,0.138,0.146
			c-0.144,0.14-0.288,0.277-0.44,0.425c-0.035-0.041-0.084-0.097-0.127-0.148C3.9,11.979,4.045,11.839,4.197,11.687z"/>
	</g>
</g>
<path opacity="0.9" fill="#ED4F00" d="M7.985,0v8.042l7.485,2.927c0.354-0.909,0.557-1.893,0.557-2.927
	C16.027,3.602,12.427,0,7.985,0z"/>
</svg>
