<?xml version="1.0" encoding="utf-8"?>
<!-- Generator: Adobe Illustrator 16.2.0, SVG Export Plug-In . SVG Version: 6.00 Build 0)  -->
<!DOCTYPE svg PUBLIC "-//W3C//DTD SVG 1.1//EN" "http://www.w3.org/Graphics/SVG/1.1/DTD/svg11.dtd">
<svg version="1.1"
	 id="svg2987" inkscape:version="0.48.0 r9654" sodipodi:docname="clock3.svg" xmlns:dc="http://purl.org/dc/elements/1.1/" xmlns:sodipodi="http://sodipodi.sourceforge.net/DTD/sodipodi-0.dtd" xmlns:svg="http://www.w3.org/2000/svg" xmlns:rdf="http://www.w3.org/1999/02/22-rdf-syntax-ns#" xmlns:cc="http://creativecommons.org/ns#" xmlns:inkscape="http://www.inkscape.org/namespaces/inkscape"
	 xmlns="http://www.w3.org/2000/svg" xmlns:xlink="http://www.w3.org/1999/xlink" x="0px" y="0px" width="16px" height="16px"
	 viewBox="0 0 16 16" enable-background="new 0 0 16 16" xml:space="preserve">
<sodipodi:namedview  id="base" inkscape:document-units="px" inkscape:grid-bbox="true" inkscape:window-maximized="1" inkscape:window-width="1920" inkscape:window-y="25" inkscape:window-height="1127" inkscape:pageshadow="2" inkscape:window-x="0" inkscape:current-layer="layer3" inkscape:pageopacity="0.0" inkscape:guide-bbox="true" inkscape:cy="6.6684704" inkscape:zoom="16" showgrid="true" bordercolor="#666666" inkscape:cx="8.6111742" pagecolor="#ffffff" borderopacity="1.0" showguides="true">
	</sodipodi:namedview>
<g>
	<path fill-rule="evenodd" clip-rule="evenodd" fill="#101C3A" d="M-0.041,8.538c0-0.334,0-0.669,0-1.005
		c0.01-0.05,0.021-0.1,0.028-0.152C0.046,7,0.078,6.611,0.165,6.237c0.99-4.25,5.1-6.912,9.384-6.088
		c4.151,0.799,7.008,4.772,6.414,8.955c-0.343,2.418-1.549,4.316-3.585,5.664c-1.284,0.849-2.704,1.289-4.26,1.28
		C7.354,16.045,6.6,16.014,5.87,15.785C2.695,14.8,0.758,12.681,0.083,9.42C0.022,9.13,0,8.833-0.041,8.538z M14.527,8.036
		c-0.003-3.605-2.921-6.528-6.526-6.531c-3.607-0.003-6.54,2.931-6.535,6.538c0.005,3.604,2.93,6.523,6.534,6.522
		C11.602,14.565,14.53,11.637,14.527,8.036z"/>
	<path fill-rule="evenodd" clip-rule="evenodd" fill="#101C3A" d="M7.495,3.185c0-0.272-0.001-0.544,0-0.816
		c0.002-0.172,0.063-0.232,0.239-0.234c0.183-0.002,0.367,0,0.55,0c0.141,0,0.215,0.071,0.215,0.211c0,0.57,0,1.141,0,1.712
		c0,0.14-0.077,0.211-0.216,0.211c-0.183,0.002-0.366,0.002-0.549,0C7.56,4.267,7.497,4.204,7.496,4.032
		C7.494,3.75,7.495,3.467,7.495,3.185z"/>
	<path fill-rule="evenodd" clip-rule="evenodd" fill="#101C3A" d="M2.911,8.288c-0.198,0-0.396,0.003-0.594-0.001
		C2.155,8.285,2.095,8.214,2.095,8.036c0-0.179,0.058-0.249,0.221-0.25c0.396-0.003,0.793-0.004,1.188,0
		c0.163,0.001,0.223,0.072,0.223,0.25c0.001,0.176-0.061,0.249-0.222,0.251C3.308,8.291,3.109,8.288,2.911,8.288z"/>
	<path fill-rule="evenodd" clip-rule="evenodd" fill="#101C3A" d="M13.077,8.287c-0.193,0-0.388,0.003-0.58,0
		c-0.172-0.003-0.231-0.073-0.229-0.262c0.003-0.174,0.063-0.238,0.235-0.239c0.387-0.002,0.773-0.002,1.161,0
		c0.177,0.001,0.237,0.069,0.237,0.252C13.9,8.22,13.839,8.285,13.658,8.287C13.465,8.29,13.271,8.288,13.077,8.287L13.077,8.287z"
		/>
	<path fill-rule="evenodd" clip-rule="evenodd" fill="#101C3A" d="M8.249,13.14c0,0.188,0.001,0.375-0.001,0.563
		c-0.002,0.175-0.071,0.237-0.255,0.235c-0.175,0-0.245-0.062-0.246-0.229c-0.002-0.392-0.002-0.785,0-1.178
		c0.001-0.166,0.07-0.226,0.247-0.226c0.187-0.001,0.252,0.058,0.254,0.235C8.25,12.74,8.249,12.94,8.249,13.14z"/>
	<path fill-rule="evenodd" clip-rule="evenodd" fill="#101C3A" d="M5.155,2.86c0.108,0.189,0.207,0.36,0.312,0.542
		c-0.075,0.044-0.14,0.082-0.215,0.127C5.146,3.347,5.047,3.177,4.939,2.99C5.009,2.948,5.074,2.91,5.155,2.86z"/>
	<path fill-rule="evenodd" clip-rule="evenodd" fill="#101C3A" d="M3.368,5.508c-0.192-0.111-0.363-0.21-0.543-0.313
		c0.043-0.076,0.082-0.143,0.124-0.217c0.18,0.103,0.346,0.198,0.534,0.306C3.447,5.354,3.412,5.424,3.368,5.508z"/>
	<path fill-rule="evenodd" clip-rule="evenodd" fill="#101C3A" d="M12.503,10.782c0.048-0.083,0.084-0.144,0.126-0.216
		c0.18,0.103,0.351,0.2,0.539,0.308c-0.039,0.071-0.074,0.138-0.121,0.223C12.865,10.991,12.692,10.89,12.503,10.782z"/>
	<path fill-rule="evenodd" clip-rule="evenodd" fill="#101C3A" d="M10.744,12.542c0.105,0.184,0.204,0.355,0.313,0.539
		c-0.072,0.042-0.138,0.081-0.217,0.128c-0.105-0.184-0.206-0.357-0.313-0.541C10.603,12.624,10.669,12.585,10.744,12.542z"/>
	<path fill-rule="evenodd" clip-rule="evenodd" fill="#101C3A" d="M6.509,2.971c-0.055-0.21-0.105-0.399-0.16-0.604
		c0.085-0.021,0.156-0.038,0.242-0.059C6.646,2.51,6.697,2.698,6.753,2.905C6.673,2.927,6.601,2.946,6.509,2.971z"/>
	<path fill-rule="evenodd" clip-rule="evenodd" fill="#101C3A" d="M10.742,3.53c-0.078-0.046-0.14-0.083-0.215-0.128
		c0.105-0.182,0.204-0.355,0.311-0.54c0.077,0.045,0.143,0.082,0.219,0.126C10.95,3.171,10.852,3.342,10.742,3.53z"/>
	<path fill-rule="evenodd" clip-rule="evenodd" fill="#101C3A" d="M13.044,4.977c0.044,0.076,0.081,0.142,0.124,0.217
		c-0.182,0.105-0.352,0.205-0.538,0.313c-0.042-0.073-0.08-0.138-0.126-0.218C12.686,5.184,12.859,5.083,13.044,4.977z"/>
	<path fill-rule="evenodd" clip-rule="evenodd" fill="#101C3A" d="M2.949,11.095c-0.042-0.075-0.081-0.142-0.125-0.219
		c0.184-0.105,0.358-0.205,0.541-0.311c0.044,0.075,0.08,0.139,0.126,0.215C3.309,10.886,3.135,10.986,2.949,11.095z"/>
	<path fill-rule="evenodd" clip-rule="evenodd" fill="#101C3A" d="M5.155,13.208c-0.078-0.044-0.141-0.079-0.217-0.122
		c0.106-0.185,0.206-0.358,0.313-0.544c0.076,0.044,0.141,0.082,0.216,0.126C5.363,12.849,5.264,13.02,5.155,13.208z"/>
	<path fill-rule="evenodd" clip-rule="evenodd" fill="#101C3A" d="M9.483,2.972c-0.092-0.025-0.16-0.044-0.239-0.066
		c0.052-0.2,0.103-0.389,0.157-0.597c0.081,0.018,0.153,0.035,0.243,0.057C9.59,2.569,9.538,2.762,9.483,2.972z"/>
	<path fill-rule="evenodd" clip-rule="evenodd" fill="#101C3A" d="M2.931,6.547C2.909,6.633,2.892,6.701,2.869,6.789
		c-0.2-0.052-0.392-0.104-0.6-0.159c0.02-0.083,0.038-0.156,0.058-0.241C2.531,6.442,2.719,6.492,2.931,6.547z"/>
	<path fill-rule="evenodd" clip-rule="evenodd" fill="#101C3A" d="M13.127,6.791c-0.021-0.087-0.041-0.158-0.063-0.242
		c0.204-0.055,0.392-0.105,0.601-0.161c0.021,0.082,0.041,0.153,0.063,0.24C13.522,6.684,13.33,6.736,13.127,6.791z"/>
	<path fill-rule="evenodd" clip-rule="evenodd" fill="#101C3A" d="M2.933,9.522c-0.211,0.056-0.4,0.106-0.605,0.16
		C2.307,9.598,2.29,9.525,2.269,9.44C2.472,9.386,2.66,9.336,2.867,9.279C2.888,9.36,2.908,9.432,2.933,9.522z"/>
	<path fill-rule="evenodd" clip-rule="evenodd" fill="#101C3A" d="M13.726,9.44c-0.02,0.084-0.038,0.155-0.06,0.242
		c-0.202-0.053-0.391-0.104-0.603-0.158c0.021-0.079,0.038-0.151,0.061-0.243C13.324,9.335,13.518,9.385,13.726,9.44z"/>
	<path fill-rule="evenodd" clip-rule="evenodd" fill="#101C3A" d="M6.591,13.767c-0.09-0.024-0.159-0.041-0.241-0.063
		c0.053-0.201,0.103-0.391,0.159-0.602c0.078,0.021,0.15,0.037,0.243,0.06C6.699,13.363,6.647,13.555,6.591,13.767z"/>
	<path fill-rule="evenodd" clip-rule="evenodd" fill="#101C3A" d="M9.24,13.166c0.087-0.023,0.155-0.042,0.241-0.064
		c0.056,0.2,0.107,0.392,0.165,0.603c-0.085,0.021-0.156,0.039-0.242,0.061C9.349,13.563,9.298,13.375,9.24,13.166z"/>
	<path fill-rule="evenodd" clip-rule="evenodd" fill="#101C3A" d="M3.757,3.925c0.04-0.036,0.092-0.085,0.141-0.131
		c0.141,0.147,0.279,0.292,0.419,0.439c-0.035,0.025-0.095,0.07-0.155,0.115C4.051,4.232,3.914,4.089,3.757,3.925z"/>
	<path fill-rule="evenodd" clip-rule="evenodd" fill="#101C3A" d="M11.789,4.373c-0.035-0.037-0.084-0.091-0.13-0.139
		c0.146-0.144,0.293-0.284,0.45-0.438c0.034,0.04,0.08,0.094,0.118,0.136C12.085,4.075,11.941,4.221,11.789,4.373z"/>
	<path fill-rule="evenodd" clip-rule="evenodd" fill="#101C3A" d="M4.202,11.698c0.041,0.043,0.09,0.097,0.137,0.146
		c-0.144,0.14-0.288,0.278-0.44,0.425c-0.035-0.041-0.084-0.097-0.127-0.147C3.905,11.991,4.048,11.851,4.202,11.698z"/>
</g>
<path opacity="0.9" fill="#84FF15" d="M8.03,0v8.102L2.023,2.679C0.726,4.116-0.072,6.013-0.072,8.102
	c0,4.476,3.627,8.102,8.102,8.102c4.475,0,8.102-3.626,8.102-8.102C16.132,3.628,12.505,0,8.03,0z"/>
</svg>
