<?xml version="1.0" encoding="utf-8"?>
<!-- Generator: Adobe Illustrator 16.2.0, SVG Export Plug-In . SVG Version: 6.00 Build 0)  -->
<!DOCTYPE svg PUBLIC "-//W3C//DTD SVG 1.1//EN" "http://www.w3.org/Graphics/SVG/1.1/DTD/svg11.dtd">
<svg version="1.1"
	 id="svg2987" inkscape:version="0.48.0 r9654" sodipodi:docname="clock_green.svg" xmlns:dc="http://purl.org/dc/elements/1.1/" xmlns:sodipodi="http://sodipodi.sourceforge.net/DTD/sodipodi-0.dtd" xmlns:svg="http://www.w3.org/2000/svg" xmlns:rdf="http://www.w3.org/1999/02/22-rdf-syntax-ns#" xmlns:cc="http://creativecommons.org/ns#" xmlns:inkscape="http://www.inkscape.org/namespaces/inkscape"
	 xmlns="http://www.w3.org/2000/svg" xmlns:xlink="http://www.w3.org/1999/xlink" x="0px" y="0px" width="16px" height="16px"
	 viewBox="0 0 16 16" enable-background="new 0 0 16 16" xml:space="preserve">
<g>
	<path fill-rule="evenodd" clip-rule="evenodd" fill="#101C3A" d="M-0.041,8.514c0-0.334,0-0.669,0-1.005
		c0.01-0.05,0.021-0.1,0.028-0.152c0.059-0.381,0.09-0.77,0.177-1.144c0.99-4.25,5.1-6.912,9.384-6.087
		c4.151,0.799,7.008,4.772,6.414,8.955c-0.343,2.418-1.549,4.316-3.585,5.664c-1.284,0.849-2.704,1.289-4.26,1.28
		C7.354,16.021,6.6,15.989,5.87,15.761c-3.174-0.985-5.111-3.104-5.787-6.365C0.022,9.105,0,8.809-0.041,8.514z M14.527,8.012
		c-0.003-3.606-2.921-6.528-6.526-6.531c-3.607-0.003-6.54,2.931-6.535,6.538c0.005,3.604,2.93,6.524,6.534,6.523
		C11.602,14.541,14.53,11.612,14.527,8.012z"/>
	<path fill-rule="evenodd" clip-rule="evenodd" fill="#101C3A" d="M7.495,3.16c0-0.272-0.001-0.543,0-0.816
		c0.002-0.172,0.063-0.233,0.239-0.235c0.183-0.001,0.367,0,0.55,0c0.141,0,0.215,0.071,0.215,0.211c0,0.571,0,1.141,0,1.712
		c0,0.14-0.077,0.211-0.216,0.211c-0.183,0.002-0.366,0.002-0.549,0C7.56,4.242,7.497,4.179,7.496,4.008
		C7.494,3.725,7.495,3.442,7.495,3.16z"/>
	<path fill-rule="evenodd" clip-rule="evenodd" fill="#101C3A" d="M2.911,8.263c-0.198,0-0.396,0.003-0.594,0
		C2.155,8.26,2.095,8.189,2.095,8.011c0-0.179,0.058-0.249,0.221-0.25c0.396-0.002,0.793-0.004,1.188,0
		c0.163,0.001,0.223,0.072,0.223,0.25C3.728,8.188,3.667,8.26,3.505,8.263C3.308,8.266,3.109,8.263,2.911,8.263z"/>
	<path fill-rule="evenodd" clip-rule="evenodd" fill="#101C3A" d="M13.077,8.263c-0.193,0-0.388,0.003-0.58,0
		C12.325,8.259,12.266,8.189,12.268,8c0.003-0.173,0.063-0.238,0.235-0.239c0.387-0.001,0.773-0.001,1.161,0
		c0.177,0.001,0.237,0.07,0.237,0.252c-0.001,0.181-0.063,0.247-0.243,0.249C13.465,8.266,13.271,8.263,13.077,8.263L13.077,8.263z"
		/>
	<path fill-rule="evenodd" clip-rule="evenodd" fill="#101C3A" d="M8.249,13.115c0,0.188,0.001,0.375-0.001,0.563
		c-0.002,0.175-0.071,0.237-0.255,0.235c-0.175,0-0.245-0.062-0.246-0.229c-0.002-0.392-0.002-0.785,0-1.178
		c0.001-0.166,0.07-0.226,0.247-0.226c0.187-0.001,0.252,0.058,0.254,0.235C8.25,12.716,8.249,12.916,8.249,13.115z"/>
	<path fill-rule="evenodd" clip-rule="evenodd" fill="#101C3A" d="M5.155,2.836c0.108,0.189,0.207,0.36,0.312,0.542
		C5.392,3.422,5.327,3.46,5.251,3.504C5.146,3.322,5.047,3.152,4.939,2.966C5.009,2.923,5.074,2.885,5.155,2.836z"/>
	<path fill-rule="evenodd" clip-rule="evenodd" fill="#101C3A" d="M3.368,5.483c-0.192-0.111-0.363-0.21-0.543-0.314
		c0.043-0.076,0.082-0.142,0.124-0.216c0.18,0.103,0.346,0.198,0.534,0.306C3.447,5.33,3.412,5.399,3.368,5.483z"/>
	<path fill-rule="evenodd" clip-rule="evenodd" fill="#101C3A" d="M12.503,10.758c0.048-0.083,0.084-0.144,0.126-0.216
		c0.18,0.103,0.351,0.2,0.539,0.308c-0.039,0.071-0.074,0.138-0.121,0.223C12.865,10.967,12.692,10.865,12.503,10.758z"/>
	<path fill-rule="evenodd" clip-rule="evenodd" fill="#101C3A" d="M10.744,12.518c0.105,0.184,0.204,0.355,0.313,0.539
		c-0.072,0.042-0.138,0.081-0.217,0.128c-0.105-0.184-0.206-0.357-0.313-0.541C10.603,12.6,10.669,12.561,10.744,12.518z"/>
	<path fill-rule="evenodd" clip-rule="evenodd" fill="#101C3A" d="M6.509,2.946c-0.055-0.21-0.105-0.4-0.16-0.605
		C6.434,2.32,6.505,2.304,6.591,2.283c0.054,0.202,0.106,0.391,0.162,0.598C6.673,2.902,6.601,2.921,6.509,2.946z"/>
	<path fill-rule="evenodd" clip-rule="evenodd" fill="#101C3A" d="M10.742,3.505c-0.078-0.046-0.14-0.083-0.215-0.127
		c0.105-0.182,0.204-0.355,0.311-0.54c0.077,0.044,0.143,0.082,0.219,0.125C10.95,3.146,10.852,3.317,10.742,3.505z"/>
	<path fill-rule="evenodd" clip-rule="evenodd" fill="#101C3A" d="M13.044,4.952c0.044,0.077,0.081,0.142,0.124,0.217
		c-0.182,0.106-0.352,0.206-0.538,0.314c-0.042-0.073-0.08-0.138-0.126-0.218C12.686,5.159,12.859,5.058,13.044,4.952z"/>
	<path fill-rule="evenodd" clip-rule="evenodd" fill="#101C3A" d="M2.949,11.07c-0.042-0.075-0.081-0.142-0.125-0.219
		c0.184-0.105,0.358-0.205,0.541-0.311c0.044,0.075,0.08,0.139,0.126,0.215C3.309,10.861,3.135,10.962,2.949,11.07z"/>
	<path fill-rule="evenodd" clip-rule="evenodd" fill="#101C3A" d="M5.155,13.184c-0.078-0.044-0.141-0.079-0.217-0.122
		c0.106-0.185,0.206-0.358,0.313-0.544c0.076,0.044,0.141,0.082,0.216,0.126C5.363,12.824,5.264,12.995,5.155,13.184z"/>
	<path fill-rule="evenodd" clip-rule="evenodd" fill="#101C3A" d="M9.483,2.947c-0.092-0.026-0.16-0.044-0.239-0.066
		c0.052-0.2,0.103-0.389,0.157-0.597C9.482,2.302,9.555,2.319,9.645,2.34C9.59,2.545,9.538,2.737,9.483,2.947z"/>
	<path fill-rule="evenodd" clip-rule="evenodd" fill="#101C3A" d="M2.931,6.522C2.909,6.608,2.892,6.677,2.869,6.765
		c-0.2-0.052-0.392-0.104-0.6-0.159c0.02-0.083,0.038-0.156,0.058-0.241C2.531,6.417,2.719,6.467,2.931,6.522z"/>
	<path fill-rule="evenodd" clip-rule="evenodd" fill="#101C3A" d="M13.127,6.767c-0.021-0.087-0.041-0.159-0.063-0.243
		c0.204-0.055,0.392-0.105,0.601-0.161c0.021,0.082,0.041,0.153,0.063,0.24C13.522,6.659,13.33,6.712,13.127,6.767z"/>
	<path fill-rule="evenodd" clip-rule="evenodd" fill="#101C3A" d="M2.933,9.498c-0.211,0.056-0.4,0.106-0.605,0.16
		C2.307,9.573,2.29,9.501,2.269,9.416C2.472,9.361,2.66,9.312,2.867,9.255C2.888,9.336,2.908,9.407,2.933,9.498z"/>
	<path fill-rule="evenodd" clip-rule="evenodd" fill="#101C3A" d="M13.726,9.416c-0.02,0.084-0.038,0.155-0.06,0.242
		c-0.202-0.053-0.391-0.104-0.603-0.158c0.021-0.079,0.038-0.151,0.061-0.243C13.324,9.311,13.518,9.36,13.726,9.416z"/>
	<path fill-rule="evenodd" clip-rule="evenodd" fill="#101C3A" d="M6.591,13.742c-0.09-0.024-0.159-0.041-0.241-0.063
		c0.053-0.201,0.103-0.391,0.159-0.602c0.078,0.021,0.15,0.037,0.243,0.06C6.699,13.339,6.647,13.53,6.591,13.742z"/>
	<path fill-rule="evenodd" clip-rule="evenodd" fill="#101C3A" d="M9.24,13.142c0.087-0.023,0.155-0.042,0.241-0.064
		c0.056,0.2,0.107,0.392,0.165,0.603c-0.085,0.021-0.156,0.039-0.242,0.061C9.349,13.539,9.298,13.351,9.24,13.142z"/>
	<path fill-rule="evenodd" clip-rule="evenodd" fill="#101C3A" d="M3.757,3.9c0.04-0.036,0.092-0.085,0.141-0.13
		c0.141,0.147,0.279,0.292,0.419,0.439C4.283,4.234,4.222,4.279,4.163,4.324C4.051,4.208,3.914,4.064,3.757,3.9z"/>
	<path fill-rule="evenodd" clip-rule="evenodd" fill="#101C3A" d="M11.789,4.348c-0.035-0.037-0.084-0.09-0.13-0.139
		c0.146-0.143,0.293-0.284,0.45-0.438c0.034,0.04,0.08,0.094,0.118,0.136C12.085,4.051,11.941,4.196,11.789,4.348z"/>
	<path fill-rule="evenodd" clip-rule="evenodd" fill="#101C3A" d="M4.202,11.674c0.041,0.043,0.09,0.097,0.137,0.146
		c-0.144,0.14-0.288,0.278-0.44,0.425c-0.035-0.041-0.084-0.097-0.127-0.147C3.905,11.967,4.048,11.826,4.202,11.674z"/>
</g>
<path opacity="0.9" fill="#84FF15" d="M11.787,0.939C10.662,0.325,9.372-0.024,8-0.024v7.916L11.787,0.939z"/>
</svg>
