<?xml version="1.0" encoding="utf-8"?>
<!-- Generator: Adobe Illustrator 16.2.0, SVG Export Plug-In . SVG Version: 6.00 Build 0)  -->
<!DOCTYPE svg PUBLIC "-//W3C//DTD SVG 1.1//EN" "http://www.w3.org/Graphics/SVG/1.1/DTD/svg11.dtd">
<svg version="1.1"
	 id="svg2993" inkscape:export-xdpi="90" inkscape:export-filename="/store/orion/projects/bitcoin/questionmark.png" inkscape:version="0.48.0 r9654" inkscape:export-ydpi="90" sodipodi:docname="questionmark.svg" xmlns:dc="http://purl.org/dc/elements/1.1/" xmlns:sodipodi="http://sodipodi.sourceforge.net/DTD/sodipodi-0.dtd" xmlns:svg="http://www.w3.org/2000/svg" xmlns:rdf="http://www.w3.org/1999/02/22-rdf-syntax-ns#" xmlns:cc="http://creativecommons.org/ns#" xmlns:inkscape="http://www.inkscape.org/namespaces/inkscape"
	 xmlns="http://www.w3.org/2000/svg" xmlns:xlink="http://www.w3.org/1999/xlink" x="0px" y="0px" width="16px" height="16px"
	 viewBox="0 0 16 16" enable-background="new 0 0 16 16" xml:space="preserve">
<sodipodi:namedview  id="base" inkscape:document-units="px" inkscape:grid-bbox="true" inkscape:window-maximized="1" inkscape:window-width="1920" inkscape:window-y="25" inkscape:window-height="1127" inkscape:pageshadow="2" inkscape:window-x="0" inkscape:current-layer="layer2" inkscape:pageopacity="0.0" inkscape:cy="7.6382159" inkscape:zoom="1" showgrid="true" bordercolor="#666666" inkscape:cx="10.789648" pagecolor="#ffffff" borderopacity="1.0">
	</sodipodi:namedview>
<path d="M8.417,10.424c0,0.086-0.043,0.127-0.127,0.127H7.206c-0.079,0-0.122-0.039-0.127-0.117
	c-0.005-0.055-0.01-0.119-0.015-0.195c-0.006-0.076-0.012-0.154-0.017-0.232c-0.005-0.08-0.009-0.156-0.012-0.23
	S7.032,9.641,7.032,9.594c0-0.252,0.011-0.477,0.032-0.668c0.02-0.193,0.069-0.381,0.146-0.566s0.188-0.373,0.337-0.564
	c0.146-0.193,0.348-0.416,0.601-0.67l0.53-0.514C8.889,6.404,9.07,6.217,9.224,6.045s0.279-0.332,0.38-0.482
	c0.1-0.15,0.174-0.297,0.222-0.443c0.047-0.145,0.07-0.293,0.07-0.445V4.555c0-0.396-0.162-0.678-0.485-0.848
	C9.085,3.539,8.596,3.455,7.941,3.455c-0.29,0-0.584,0.012-0.882,0.035S6.432,3.555,6.067,3.611c-0.048,0.006-0.083,0-0.104-0.014
	C5.943,3.582,5.928,3.549,5.917,3.502L5.734,2.457C5.719,2.373,5.753,2.32,5.837,2.299c0.333-0.074,0.705-0.131,1.116-0.17
	S7.769,2.07,8.164,2.07c0.494,0,0.944,0.035,1.348,0.105c0.404,0.072,0.75,0.193,1.037,0.365c0.287,0.17,0.51,0.398,0.664,0.68
	c0.155,0.283,0.233,0.635,0.233,1.057v0.119c0,0.236-0.025,0.461-0.079,0.672c-0.053,0.211-0.138,0.424-0.256,0.637
	c-0.119,0.213-0.275,0.436-0.467,0.664c-0.193,0.23-0.429,0.488-0.709,0.771L9.343,7.758C9.121,7.99,8.948,8.184,8.824,8.336
	C8.701,8.488,8.607,8.637,8.547,8.779S8.449,9.078,8.437,9.25c-0.013,0.17-0.02,0.387-0.02,0.645V10.424z M7.206,13.93
	c-0.084,0-0.127-0.043-0.127-0.127v-1.805c0-0.09,0.043-0.137,0.127-0.141l1.163-0.191c0.048-0.004,0.08,0,0.099,0.016
	c0.019,0.018,0.028,0.049,0.028,0.096v2.025c0,0.084-0.042,0.127-0.127,0.127H7.206z"/>
</svg>
